# File created by Blade
# Date/Time:  Fri Jan 16 19:41:12 2015
# Frame Rate: 120.000 fps
#------------------------------------------------------
:FULLY-SPECIFIED
:DEGREES
874
root 18.549159 35.460736 -20.748006 9.911842 4.030095 -0.524624
Spine -27.043209 -5.459749 5.514568
Head 35.335671 4.005733 -9.447364
LeftShoulder -31.337655 -53.426003 58.346151
LeftArm 70.492990 -32.028591 -34.924804
LeftForeArm -21.411509 -0.000000 151.787895
LeftHand 3.783189 -0.000000 7.518474
LeftHandThumb1 -26.253704 0.000000 33.147579
RightShoulder -1.574261 -41.328293 -5.415326
RightArm -12.129898 -63.290560 86.189496
RightForeArm -13.292667 0.000000 131.960637
RightHand 5.982673 -0.000000 45.821314
RightHandThumb1 -24.326973 -0.000000 -32.862282
LeftUpLeg 1.326323 3.725030 1.298603
LeftLeg -6.789169 -0.000000 0.000000
LeftFoot -22.165748 27.907788 -16.304015
LeftToeBase 23.340200 -0.000000 -0.000000
RightUpLeg 1.392992 -9.823865 -1.239933
RightLeg -3.928505 -0.000000 0.000000
RightFoot -23.703370 -23.022558 21.424828
RightToeBase 22.322516 -0.000000 -0.000000
875
root 18.546625 35.461976 -20.755138 9.992457 3.946981 -0.537198
Spine -27.146568 -5.368637 5.511551
Head 35.329717 3.861943 -9.415531
LeftShoulder -31.257325 -53.424078 58.302900
LeftArm 70.491860 -31.988478 -34.806575
LeftForeArm -21.399814 -0.000000 151.783958
LeftHand 3.798346 -0.000000 7.589517
LeftHandThumb1 -26.253704 0.000000 33.147579
RightShoulder -1.630959 -41.120853 -5.263879
RightArm -11.805358 -63.231657 85.989657
RightForeArm -12.846268 -0.000000 131.745386
RightHand 5.960370 -0.000000 45.961573
RightHandThumb1 -24.326973 -0.000000 -32.862282
LeftUpLeg 1.245087 3.752508 1.299990
LeftLeg -6.784401 -0.000000 0.000000
LeftFoot -22.170229 27.941022 -16.304143
LeftToeBase 23.361685 -0.000000 -0.000000
RightUpLeg 1.292712 -9.785600 -1.217998
RightLeg -3.944685 -0.000000 0.000000
RightFoot -23.674194 -22.993861 21.430801
RightToeBase 22.283880 -0.000000 -0.000000
876
root 18.542107 35.462650 -20.761958 10.079456 3.864352 -0.555760
Spine -27.262611 -5.274405 5.512428
Head 35.331004 3.738806 -9.368284
LeftShoulder -31.149883 -53.406145 58.210343
LeftArm 70.529111 -31.980116 -34.688549
LeftForeArm -21.493453 -0.000000 151.739433
LeftHand 3.902451 0.000000 7.618010
LeftHandThumb1 -26.253704 0.000000 33.147579
RightShoulder -1.687845 -40.877387 -5.086276
RightArm -11.556770 -63.105406 85.810827
RightForeArm -12.311183 -0.000000 131.667844
RightHand 6.013869 -0.000000 46.143820
RightHandThumb1 -24.326973 -0.000000 -32.862282
LeftUpLeg 1.154151 3.776014 1.309070
LeftLeg -6.777183 -0.000000 0.000000
LeftFoot -22.183402 27.983482 -16.301782
LeftToeBase 23.322696 -0.000000 -0.000000
RightUpLeg 1.188470 -9.740592 -1.184865
RightLeg -3.965809 -0.000000 0.000000
RightFoot -23.626067 -22.986338 21.392876
RightToeBase 22.297254 -0.000000 -0.000000
877
root 18.538237 35.463754 -20.767592 10.162307 3.773878 -0.566833
Spine -27.380522 -5.169918 5.507544
Head 35.336118 3.642303 -9.321607
LeftShoulder -31.048625 -53.402760 58.119645
LeftArm 70.508225 -31.943471 -34.473689
LeftForeArm -21.455209 0.000000 151.735007
LeftHand 3.964630 -0.000000 7.726000
LeftHandThumb1 -26.253704 0.000000 33.147579
RightShoulder -1.708693 -40.676639 -4.939064
RightArm -11.304715 -63.196914 85.690956
RightForeArm -12.194193 -0.000000 131.564343
RightHand 5.986746 -0.000000 46.128097
RightHandThumb1 -24.326973 -0.000000 -32.862282
LeftUpLeg 1.071796 3.824590 1.309717
LeftLeg -6.773862 -0.000000 0.000000
LeftFoot -22.189687 28.001369 -16.307953
LeftToeBase 23.385006 -0.000000 -0.000000
RightUpLeg 1.087907 -9.697615 -1.161402
RightLeg -3.984415 -0.000000 0.000000
RightFoot -23.601387 -22.975105 21.373104
RightToeBase 22.316828 -0.000000 -0.000000
878
root 18.533459 35.464746 -20.773307 10.244811 3.693797 -0.585642
Spine -27.503772 -5.065338 5.514450
Head 35.332145 3.516084 -9.298095
LeftShoulder -30.901694 -53.403978 57.958498
LeftArm 70.516648 -31.933811 -34.249394
LeftForeArm -21.411129 -0.000000 151.732460
LeftHand 3.951066 0.000000 7.814598
LeftHandThumb1 -26.253704 0.000000 33.147579
RightShoulder -1.671889 -40.436480 -4.795041
RightArm -11.250387 -63.266549 85.788696
RightForeArm -12.197115 0.000000 131.557114
RightHand 5.982605 -0.000000 46.073202
RightHandThumb1 -24.326973 -0.000000 -32.862282
LeftUpLeg 0.989047 3.849528 1.324075
LeftLeg -6.768944 -0.000000 0.000000
LeftFoot -22.187443 28.028561 -16.299672
LeftToeBase 23.384082 -0.000000 -0.000000
RightUpLeg 0.989091 -9.677331 -1.128290
RightLeg -4.005114 -0.000000 0.000000
RightFoot -23.553382 -22.946367 21.339577
RightToeBase 22.361258 -0.000000 -0.000000
879
root 18.528565 35.465171 -20.779161 10.332100 3.597877 -0.602030
Spine -27.630125 -4.978526 5.530327
Head 35.310262 3.397067 -9.287735
LeftShoulder -30.864337 -53.366269 57.905257
LeftArm 70.492998 -31.893314 -34.049170
LeftForeArm -21.416347 -0.000000 151.742816
LeftHand 3.888660 -0.000000 7.662458
LeftHandThumb1 -26.253704 0.000000 33.147579
RightShoulder -1.619213 -40.281631 -4.643341
RightArm -11.088191 -63.353012 85.717654
RightForeArm -12.064384 -0.000000 131.625065
RightHand 5.881146 0.000000 46.062887
RightHandThumb1 -24.326973 -0.000000 -32.862282
LeftUpLeg 0.900901 3.907165 1.329901
LeftLeg -6.761772 -0.000000 0.000000
LeftFoot -22.199484 28.058759 -16.290752
LeftToeBase 23.437229 -0.000000 -0.000000
RightUpLeg 0.884517 -9.633895 -1.100231
RightLeg -4.024231 -0.000000 0.000000
RightFoot -23.517935 -22.933422 21.295208
RightToeBase 22.339896 -0.000000 -0.000000
